<svg height="512pt" viewBox="0 -80 512 512" width="512pt" xmlns="http://www.w3.org/2000/svg"><path d="m127.46875 351.335938c-34.851562 0-63.203125-28.355469-63.203125-63.203126 0-34.847656 28.351563-63.199218 63.203125-63.199218 34.847656 0 63.195312 28.351562 63.195312 63.199218 0 34.847657-28.347656 63.203126-63.195312 63.203126zm0 0" fill="#0051bf"/><path d="m127.46875 254.933594c-18.308594 0-33.203125 14.894531-33.203125 33.199218 0 18.308594 14.894531 33.203126 33.203125 33.203126 18.304688 0 33.195312-14.894532 33.195312-33.203126 0-18.304687-14.890624-33.199218-33.195312-33.199218zm0 0" fill="#d5feff"/><path d="m480.335938 162.558594c-8.199219-5.464844-16.277344-10.832032-20.410157-13.574219-5.519531-9.222656-22.914062-38.28125-34.71875-57.902344-9.878906-16.539062-28.019531-26.8125-47.34375-26.8125h-41.53125c-8.28125 0-15 6.714844-15 15v208.867188c0 8.28125 6.71875 15 15 15h160.667969c8.285156 0 15-6.71875 15-15v-66.308594c0-23.847656-11.828125-45.996094-31.664062-59.269531zm0 0" fill="#046eff"/><path d="m416.667969 351.335938c-34.851563 0-63.199219-28.355469-63.199219-63.203126 0-34.847656 28.351562-63.199218 63.199219-63.199218 34.847656 0 63.199219 28.351562 63.199219 63.199218 0 34.847657-28.351563 63.203126-63.199219 63.203126zm0 0" fill="#141b73"/><path d="m416.667969 254.933594c-18.308594 0-33.199219 14.894531-33.199219 33.199218 0 18.308594 14.890625 33.203126 33.199219 33.203126 18.304687 0 33.199219-14.894532 33.199219-33.203126 0-18.304687-14.894532-33.199218-33.199219-33.199218zm0 0" fill="#9ee2f8"/><path d="m336.332031 303.132812h-321.332031c-8.285156 0-15-6.714843-15-15v-273.132812c0-8.285156 6.714844-15 15-15h321.332031c8.285157 0 15 6.714844 15 15v273.132812c0 8.285157-6.714843 15-15 15zm0 0" fill="#ffefae"/><path d="m336.332031 0h-160.335937v303.132812h160.335937c8.285157 0 15-6.714843 15-15v-273.132812c0-8.285156-6.714843-15-15-15zm0 0" fill="#ffd422"/><path d="m166.644531 100.414062-25.859375-44.78125c-4.140625-7.179687-13.328125-9.640624-20.507812-5.480468-34.339844 19.882812-55.679688 56.839844-55.679688 96.460937 0 8.28125 6.707032 15 15 15h51.71875c-1.589844-4.710937-2.449218-9.757812-2.449218-15 0-22.789062 16.257812-41.847656 37.777343-46.199219zm0 0" fill="#046eff"/><path d="m237.1875 222.59375-25.871094-44.808594c-8.640625 9.777344-21.269531 15.957032-35.320312 15.957032-14.050782 0-26.679688-6.179688-35.320313-15.957032l-25.871093 44.808594c-4.140626 7.171875-1.6875 16.332031 5.472656 20.480469 48.988281 28.390625 94.980468 9.539062 111.4375 0 7.160156-4.148438 9.609375-13.308594 5.472656-20.480469zm0 0" fill="#046eff"/><path d="m231.714844 50.152344c-7.1875-4.160156-16.367188-1.6875-20.507813 5.480468l-25.859375 44.78125c21.519532 4.351563 37.777344 23.410157 37.777344 46.199219 0 5.242188-.859375 10.289063-2.449219 15h51.71875c8.28125 0 15-6.71875 15-15 0-39.621093-21.339843-76.578125-55.679687-96.460937zm0 0" fill="#0051bf"/><path d="m175.996094 129.480469c-9.445313 0-17.132813 7.6875-17.132813 17.132812 0 9.449219 7.6875 17.132813 17.132813 17.132813 9.445312 0 17.132812-7.683594 17.132812-17.132813 0-9.445312-7.683594-17.132812-17.132812-17.132812zm0 0" fill="#046eff"/><g fill="#0051bf"><path d="m211.316406 177.785156c-8.640625 9.777344-21.269531 15.957032-35.320312 15.957032-.109375 0-.21875-.007813-.332032-.007813v64.347656c25.527344-.152343 46.144532-9.265625 56.050782-15.007812 7.160156-4.148438 9.609375-13.308594 5.472656-20.480469zm0 0"/><path d="m175.667969 163.730469c.109375 0 .21875.015625.328125.015625 9.449218 0 17.132812-7.683594 17.132812-17.132813 0-9.445312-7.683594-17.132812-17.132812-17.132812-.109375 0-.21875.015625-.328125.015625zm0 0"/></g></svg>